<svg height="64px" width="64px" version="1.1" id="Layer_1" xmlns="http://www.w3.org/2000/svg" xmlns:xlink="http://www.w3.org/1999/xlink" viewBox="0 0 512 512" xml:space="preserve" fill="#000000"><g id="SVGRepo_bgCarrier" stroke-width="0"></g><g id="SVGRepo_tracerCarrier" stroke-linecap="round" stroke-linejoin="round"></g><g id="SVGRepo_iconCarrier"> <circle style="fill:#386895;" cx="256" cy="256" r="256"></circle> <path style="fill:#273B7A;" d="M322.908,503.148c99.216-26.796,174.549-111.723,187.201-215.997l-96.085-96.085l-29.88-4.368 l-104.008,62.981l-139.542,71.154L322.908,503.148z"></path> <path style="fill:#FF5419;" d="M291.628,403.968h-25.907l-15.581-66.774c-0.541-2.317-2.848-3.768-5.177-3.217 c-2.319,0.54-3.758,2.858-3.217,5.177l15.122,64.815h-8.963l-15.581-66.774c-0.54-2.317-2.844-3.768-5.177-3.217 c-2.319,0.54-3.758,2.858-3.217,5.177l15.122,64.815h-3.741c-2.381,0-4.31,1.929-4.31,4.31s1.929,4.31,4.31,4.31h56.315 c2.381,0,4.31-1.929,4.31-4.31S294.009,403.968,291.628,403.968z"></path> <path style="fill:#FFEDB5;" d="M414.025,191.066c0,0-10.917-5.172-30.742-24.997s-43.96-17.239-71.542,25.859 S179,277.261,90.219,234.163c0,0,30.168,125.845,146.532,123.259c116.364-2.586,119.889-129.753,130.443-143.946 C383.857,191.066,414.025,191.066,414.025,191.066z"></path> <path style="fill:#FEE187;" d="M383.283,166.069c-19.825-19.825-43.96-17.239-71.542,25.859 c-10.788,16.856-33.445,33.582-62.349,45.12v119.546c103.977-11.186,107.644-129.458,117.8-143.117 c16.665-22.411,46.833-22.411,46.833-22.411S403.108,185.894,383.283,166.069z"></path> <path style="fill:#FF5419;" d="M394.111,176.29l-6.058,20.816c13.396-6.03,25.972-6.041,25.972-6.041 S407.033,187.738,394.111,176.29z"></path> <path style="fill:#FFC61B;" d="M291.337,213.476c-3.448,0-84.756,41.374-153.712-0.862c0,0-10.343,131.017,114.64,101.71 S291.337,213.476,291.337,213.476z"></path> <path style="fill:#EAA22F;" d="M291.337,213.476c-1.514,0-18.044,7.977-41.944,13.35v88.126c0.958-0.209,1.9-0.398,2.874-0.628 C377.249,285.018,291.337,213.476,291.337,213.476z"></path> <circle style="fill:#59595B;" cx="360.158" cy="177.131" r="3.591"></circle> </g></svg>